# xmcd CD database file
#
# Track frame offsets:
#	150
#	9989
#	20535
#	31297
#	39779
#	49983
#	58228
#	68593
#	77533
#	87315
#	93982
#	104732
#
# Disc length: 1519 seconds
#
# Revision: 3
# Processed by: cddbd v1.5.2PL0 Copyright (c) Steve Scherf et al.
# Submitted via: CDex 1.51
#
DISCID=8e05ed0c
DTITLE=Johnny Cash - Forever Johnny Cash [CD3]
DYEAR=2006
DGENRE=Country
TTITLE0=Born to Lose
TTITLE1=Cold, Cold Heart
TTITLE2=Fool's Hall of Fame
TTITLE3=I Forgot to Remember to Forget
TTITLE4=I Was There When It Happened
TTITLE5=The Wreck of the Old '97
TTITLE6=You Win Again
TTITLE7=Two Timin' Woman
TTITLE8=Story of a Broken Heart
TTITLE9=You're My Baby
TTITLE10=I Just Thought You'd Like to Know
TTITLE11=Blue Train
EXTD=YEAR: 2006
EXTT0=
EXTT1=
EXTT2=
EXTT3=
EXTT4=
EXTT5=
EXTT6=
EXTT7=
EXTT8=
EXTT9=
EXTT10=
EXTT11=
PLAYORDER=
